<?xml version="1.0" standalone="no"?>
<!DOCTYPE svg PUBLIC "-//W3C//DTD SVG 20010904//EN"
 "http://www.w3.org/TR/2001/REC-SVG-20010904/DTD/svg10.dtd">
<svg version="1.0" xmlns="http://www.w3.org/2000/svg"
 width="512.000000pt" height="512.000000pt" viewBox="0 0 512.000000 512.000000"
 preserveAspectRatio="xMidYMid meet">
<metadata>
Created by potrace 1.14, written by Peter Selinger 2001-2017
</metadata>
<g transform="translate(0.000000,512.000000) scale(0.100000,-0.100000)"
fill="#000000" stroke="none">
<path d="M2290 5104 c-36 -8 -74 -16 -85 -18 -11 -3 -21 -5 -22 -7 -2 -1 -6
-2 -10 -3 -43 -10 -189 -72 -203 -86 -3 -3 -21 -14 -40 -24 -19 -11 -37 -22
-40 -25 -3 -3 -22 -19 -43 -34 -43 -32 -157 -147 -157 -158 0 -4 -6 -14 -13
-21 -20 -22 -64 -92 -71 -116 -4 -12 -12 -22 -17 -22 -5 0 -8 -3 -7 -7 1 -5
-5 -21 -14 -38 -77 -147 -101 -356 -59 -525 16 -65 88 -225 123 -275 4 -5 23
-31 42 -57 33 -45 35 -49 32 -125 -2 -74 20 -236 43 -313 6 -19 11 -36 11 -37
0 -1 -21 -5 -47 -9 -61 -10 -49 -8 -113 -23 -79 -20 -198 -72 -264 -115 -121
-81 -230 -235 -345 -489 -17 -37 -32 -70 -33 -75 -1 -4 -16 -39 -34 -79 -18
-39 -30 -74 -27 -77 4 -3 1 -6 -6 -6 -7 0 -9 -4 -6 -10 3 -5 1 -10 -4 -10 -6
0 -10 -3 -9 -7 2 -5 -7 -33 -19 -63 -39 -96 -46 -115 -47 -120 -1 -3 -15 -39
-31 -80 -16 -41 -30 -77 -31 -80 0 -3 -6 -18 -13 -35 -7 -16 -22 -55 -33 -85
-12 -30 -25 -66 -31 -80 -6 -14 -11 -28 -12 -32 -2 -5 -4 -10 -5 -13 -1 -3 -3
-8 -5 -12 -1 -5 -5 -17 -9 -28 -76 -199 -140 -375 -166 -455 -10 -30 -23 -66
-29 -80 -6 -14 -40 -108 -76 -210 -60 -169 -90 -251 -111 -305 -4 -11 -8 -22
-9 -25 0 -3 -12 -36 -25 -75 -13 -38 -25 -74 -27 -80 -1 -5 -10 -35 -19 -65
-41 -141 -55 -279 -34 -335 18 -48 102 -63 215 -38 39 8 74 18 80 21 5 3 16 7
25 8 17 1 82 26 147 55 24 10 45 19 49 19 3 0 30 11 60 25 30 14 57 25 59 25
2 0 48 21 102 46 54 25 134 62 178 81 44 20 98 44 121 54 57 25 199 82 199 79
0 -1 44 19 99 44 54 25 105 46 112 46 8 0 14 5 14 12 0 6 3 9 6 5 4 -3 20 1
36 9 16 8 158 68 316 134 268 110 588 245 657 275 114 51 231 109 233 116 2 5
8 9 14 9 14 0 104 74 151 124 64 69 119 171 173 321 4 11 9 29 11 39 2 11 5
21 6 23 6 5 67 -21 67 -29 0 -4 4 -8 10 -8 9 0 30 -15 64 -45 39 -35 168 -137
206 -162 44 -29 165 -94 175 -93 3 0 19 -7 35 -15 16 -8 32 -15 35 -15 3 1 30
-4 60 -10 199 -41 415 19 538 150 30 32 58 68 62 79 3 12 11 21 17 21 6 0 8 3
5 7 -4 3 -3 11 2 17 24 29 73 225 75 294 0 12 2 22 6 22 3 0 5 15 6 33 3 100
35 231 72 301 52 96 174 156 318 156 52 0 74 4 75 13 2 13 1 14 -5 54 -3 15
-8 64 -12 108 -4 44 -8 87 -9 95 -2 12 -10 96 -19 195 -4 38 -12 42 -73 34
-32 -5 -69 -11 -83 -14 -14 -3 -37 -7 -53 -10 -24 -5 -125 -40 -214 -76 -18
-8 -33 -17 -33 -21 0 -4 -5 -8 -10 -8 -17 0 -111 -63 -151 -101 -20 -19 -52
-54 -71 -79 -37 -47 -105 -182 -112 -222 -3 -12 -5 -24 -7 -25 -1 -2 -3 -7 -4
-13 -1 -5 -4 -12 -5 -15 -3 -6 -3 -6 -14 -60 -5 -22 -10 -47 -11 -55 -1 -8 -8
-53 -14 -100 -7 -47 -17 -103 -22 -125 -14 -58 -52 -155 -61 -155 -5 0 -8 -5
-8 -11 0 -16 -39 -49 -77 -65 -29 -13 -79 -13 -139 0 -49 10 -157 75 -279 166
-136 102 -190 135 -266 163 l-46 17 -17 91 c-30 156 -82 283 -177 434 -42 66
-42 67 32 79 74 12 95 17 109 23 8 3 23 8 33 9 45 9 149 49 222 85 72 36 165
106 165 125 0 4 6 15 14 23 24 27 43 113 40 186 -1 58 -29 197 -51 255 -3 8
-7 20 -9 25 -1 6 -14 42 -28 81 -14 40 -28 85 -31 100 -4 26 -9 49 -15 79 -9
43 27 72 87 69 27 -1 48 -3 48 -4 0 -1 10 -3 23 -6 39 -7 143 -60 222 -113 41
-28 81 -51 88 -51 6 0 12 -3 12 -7 0 -12 123 -66 190 -83 152 -40 354 -24 488
37 64 29 70 33 131 93 50 49 86 90 88 103 1 4 13 31 26 60 14 29 27 66 30 82
3 17 10 53 16 80 10 51 7 319 -4 365 -4 14 -9 41 -11 60 -16 103 -84 340 -141
490 -4 8 -7 17 -8 20 -6 19 -57 141 -61 148 -2 4 -96 -33 -154 -60 -25 -11
-51 -21 -57 -21 -7 0 -13 -4 -13 -9 0 -4 -7 -8 -15 -8 -8 0 -23 -4 -33 -9 -18
-9 -74 -34 -82 -36 -3 -1 -21 -8 -41 -17 -20 -9 -45 -19 -57 -22 -28 -9 -28
-21 2 -82 13 -27 40 -87 60 -134 21 -47 44 -98 51 -115 21 -47 82 -234 95
-294 19 -80 16 -173 -5 -220 -27 -62 -130 -121 -208 -121 -29 0 -96 19 -107
30 -5 5 -46 31 -177 112 -35 21 -69 38 -78 38 -8 0 -15 5 -15 10 0 6 -8 10
-18 10 -10 0 -22 4 -27 9 -35 33 -380 65 -412 39 -7 -6 -13 -8 -13 -5 0 8 -69
-12 -120 -35 -203 -92 -289 -301 -227 -553 13 -55 41 -151 60 -213 31 -98 42
-154 38 -199 -1 -6 -13 -14 -28 -17 -48 -11 -77 -16 -113 -22 -81 -13 -97 -16
-162 -34 -37 -10 -68 -17 -68 -15 0 2 -27 -7 -59 -20 l-60 -23 -29 27 c-37 36
-212 151 -229 151 -7 0 -13 4 -13 8 0 14 -194 95 -204 85 -3 -4 -6 -2 -6 4 0
6 -15 13 -32 17 -18 3 -39 7 -47 9 -14 4 -35 52 -47 106 -9 44 -9 46 -17 57
-12 20 2 22 66 8 67 -14 219 -11 277 5 82 23 110 33 169 61 76 37 156 100 201
157 41 55 81 152 86 214 2 27 5 53 5 57 1 4 0 9 -1 12 -1 3 -3 16 -4 30 -5 66
-21 121 -52 181 -122 232 -371 322 -622 223 -89 -35 -192 -104 -270 -181 -36
-35 -68 -63 -72 -63 -11 0 -33 81 -36 135 -3 63 20 162 52 218 13 23 28 51 33
62 12 27 67 76 122 108 74 44 157 66 343 92 22 3 77 6 123 6 60 0 83 4 80 12
-2 7 -10 30 -18 52 -8 22 -16 42 -19 45 -3 3 -6 12 -8 20 -2 13 -31 92 -52
145 -4 11 -21 54 -37 95 -34 86 -38 88 -153 64z m195 -1146 c84 -76 65 -181
-40 -227 -95 -42 -97 -43 -180 -43 -53 -1 -82 4 -118 22 -27 13 -51 29 -54 36
-5 14 38 86 71 118 80 79 166 124 239 125 40 1 53 -4 82 -31z"/>
<path d="M3680 5002 c-17 -60 -43 -107 -92 -172 -21 -28 -38 -52 -38 -54 0 -2
25 -30 55 -62 30 -31 82 -86 114 -120 l59 -62 39 41 c59 63 106 133 146 217
40 83 71 190 59 201 -4 5 -29 11 -57 15 -27 3 -59 8 -70 10 -11 3 -36 7 -55
10 -19 3 -46 7 -60 9 -14 2 -39 6 -55 9 -29 5 -31 3 -45 -42z"/>
<path d="M890 4884 c-41 -6 -91 -15 -110 -18 -19 -4 -53 -9 -74 -12 -59 -8
-70 -18 -71 -58 0 -20 2 -36 5 -36 3 0 5 -11 5 -25 0 -14 -4 -25 -9 -25 -5 0
-3 -6 3 -13 6 -8 8 -16 5 -20 -3 -3 -7 -23 -9 -44 -2 -21 -6 -49 -9 -63 -20
-90 -20 -87 16 -95 18 -4 38 -10 43 -13 6 -4 19 -8 29 -9 11 -2 25 -8 33 -14
7 -6 13 -9 13 -6 0 3 38 -7 84 -23 l85 -28 10 31 c9 29 13 49 26 116 9 46 17
134 17 179 0 52 -10 184 -14 187 -2 0 -37 -4 -78 -11z"/>
<path d="M3269 4706 c-2 -3 -17 -7 -32 -10 -54 -10 -232 -48 -257 -56 -17 -5
-24 -13 -22 -26 5 -33 10 -58 16 -84 11 -50 24 -106 40 -185 30 -142 36 -155
61 -145 12 4 37 11 56 14 19 3 66 13 104 22 39 9 79 18 90 20 11 1 21 3 23 4
1 2 6 3 11 4 22 3 22 4 -8 141 -37 173 -52 243 -56 264 -4 25 -18 45 -26 37z"/>
<path d="M255 4297 c-35 -42 -141 -167 -166 -195 -34 -38 -36 -50 -11 -68 39
-31 154 -105 204 -132 101 -55 247 -101 249 -78 0 6 2 20 4 31 6 28 16 104 20
145 2 19 4 35 5 35 1 0 4 20 6 45 2 25 6 50 9 57 2 7 -12 17 -33 24 -62 20
-154 68 -209 110 -56 42 -63 44 -78 26z"/>
<path d="M945 3727 c-5 -7 -35 -48 -65 -92 -30 -44 -71 -105 -92 -135 -21 -30
-38 -60 -38 -65 0 -10 232 -127 246 -125 4 1 10 -2 13 -7 7 -9 127 -68 157
-77 19 -6 23 0 35 39 7 25 17 45 21 45 4 0 8 7 8 16 0 8 8 34 19 57 24 56 34
81 35 89 1 3 4 10 9 14 21 21 -4 46 -130 129 -75 50 -141 92 -147 94 -6 2 -17
10 -24 18 -16 16 -34 16 -47 0z"/>
<path d="M4090 3274 c-58 -19 -113 -37 -123 -39 -48 -11 -59 -18 -54 -33 20
-68 98 -306 101 -310 3 -2 11 0 18 4 7 5 18 9 23 10 6 1 55 17 110 34 55 17
107 33 115 34 25 5 23 30 -12 138 -18 57 -33 105 -33 108 -6 27 -29 90 -34 89
-3 0 -53 -16 -111 -35z"/>
<path d="M3772 2560 c-118 -102 -181 -159 -209 -186 -18 -17 -36 -29 -40 -25
-7 6 20 -30 42 -55 6 -6 35 -39 65 -74 30 -35 62 -71 70 -80 8 -8 27 -30 42
-48 l26 -32 141 122 140 122 -19 25 c-10 14 -37 46 -59 70 -23 24 -41 46 -41
49 0 2 -16 20 -35 41 -19 20 -47 50 -63 68 l-28 31 -32 -28z"/>
<path d="M4581 1261 c-11 -7 -7 -318 5 -330 3 -3 44 -6 92 -7 98 -2 249 -12
273 -20 17 -5 17 -6 35 126 3 19 12 71 19 115 8 44 10 84 6 88 -4 4 -19 10
-32 12 -95 16 -379 27 -398 16z"/>
<path d="M3745 955 c-38 -30 -75 -58 -80 -62 -6 -5 -31 -24 -57 -43 -26 -19
-48 -38 -48 -41 0 -3 11 -23 25 -43 13 -20 22 -36 18 -36 -3 0 -1 -6 4 -12 20
-27 44 -109 46 -158 1 -36 6 -50 17 -51 8 -1 24 -3 35 -4 11 -2 45 -6 75 -9
30 -4 75 -9 100 -13 25 -3 61 -7 80 -7 l35 -1 0 65 c1 124 -33 245 -106 379
-38 69 -55 92 -69 90 -3 0 -36 -25 -75 -54z"/>
<path d="M4627 551 l-117 -119 161 -158 c88 -88 162 -161 165 -163 5 -5 234
227 234 238 0 9 -305 314 -318 319 -4 1 -60 -51 -125 -117z"/>
</g>
</svg>
